<svg width="24" height="24" viewBox="0 0 24 24" fill="none" xmlns="http://www.w3.org/2000/svg">
<path fill-rule="evenodd" clip-rule="evenodd" d="M2.89673 11.403C2.89673 10.6338 3.52033 10.0102 4.28959 10.0102H8.35436C9.41904 10.0102 10.2977 10.8065 10.4272 11.8361H19.0141C20.168 11.8361 21.1034 12.7715 21.1034 13.9254V21.0535C21.1034 21.4382 20.7916 21.75 20.4069 21.75H3.59316C3.20853 21.75 2.89673 21.4382 2.89673 21.0535V11.403ZM8.35436 11.403L4.28959 11.403V20.3571H19.7105V13.9254C19.7105 13.5408 19.3987 13.2289 19.0141 13.2289H9.74722C9.36259 13.2289 9.05079 12.9171 9.05079 12.5325V12.0994C9.05079 11.7148 8.73899 11.403 8.35436 11.403Z" fill="#2A292F"/>
<path fill-rule="evenodd" clip-rule="evenodd" d="M5.4834 2.94643C5.4834 2.5618 5.7952 2.25 6.17983 2.25H13.4125C13.5994 2.25 13.7784 2.32513 13.9094 2.4585L17.6704 6.28886C17.7982 6.41908 17.8699 6.59429 17.8699 6.77679V12.3233H16.477V7.06153L13.1203 3.64286H6.87626V10.3833H5.4834V2.94643Z" fill="#2A292F"/>
<path fill-rule="evenodd" clip-rule="evenodd" d="M12 7.82144V2.94644H13.3929V7.12501H16.875V8.51787H12.6964C12.3118 8.51787 12 8.20607 12 7.82144Z" fill="#2A292F"/>
</svg>
